<?xml version="1.0" standalone="no"?>
<!DOCTYPE svg PUBLIC "-//W3C//DTD SVG 20010904//EN"
 "http://www.w3.org/TR/2001/REC-SVG-20010904/DTD/svg10.dtd">
<svg version="1.0" xmlns="http://www.w3.org/2000/svg"
 width="1155.000000pt" height="1280.000000pt" viewBox="0 0 1155.000000 1280.000000"
 preserveAspectRatio="xMidYMid meet">
<metadata>
Created by potrace 1.15, written by Peter Selinger 2001-2017
</metadata>
<g transform="translate(0.000000,1280.000000) scale(0.100000,-0.100000)"
fill="#000000" stroke="none">
<path d="M3944 12782 c-100 -36 -177 -111 -215 -210 -29 -79 -24 -195 13 -267
55 -106 164 -182 277 -192 l60 -6 325 -591 c178 -325 336 -612 351 -638 l26
-47 -122 -61 c-261 -132 -476 -286 -685 -495 -460 -459 -732 -1071 -761 -1712
l-6 -133 864 -2 864 -3 39 -72 c22 -40 42 -73 45 -73 3 0 24 34 46 74 21 41
42 73 46 70 5 -2 25 -36 46 -74 20 -39 40 -70 43 -70 3 0 23 34 45 75 22 41
42 75 45 75 3 0 23 -34 44 -75 22 -41 42 -75 45 -75 3 0 24 34 46 75 22 41 42
75 45 75 3 0 23 -34 44 -75 22 -41 42 -75 45 -75 3 0 24 34 46 75 22 41 42 75
45 75 3 0 23 -34 44 -75 22 -41 42 -75 45 -75 4 0 24 34 46 75 22 41 42 75 45
75 3 0 23 -34 44 -75 22 -41 42 -75 45 -75 4 0 24 34 46 75 22 41 42 75 45 75
3 0 23 -34 45 -75 22 -41 42 -75 45 -75 3 0 23 34 45 75 22 41 42 75 45 75 3
0 23 -34 45 -75 22 -41 42 -75 45 -75 3 0 23 34 45 75 22 41 42 75 45 75 3 0
23 -34 45 -75 22 -41 42 -75 46 -75 3 0 23 34 45 75 l39 75 944 0 944 0 -7
128 c-51 938 -579 1761 -1406 2191 l-128 67 337 544 336 545 73 7 c128 11 230
78 289 190 25 48 28 63 28 153 0 95 -2 103 -34 163 -38 70 -92 120 -167 154
-70 33 -208 32 -276 -1 -74 -36 -134 -95 -169 -167 -27 -54 -32 -76 -32 -137
-1 -84 13 -140 49 -192 25 -37 25 -40 11 -69 -9 -17 -164 -269 -344 -561 -259
-418 -333 -530 -348 -529 -11 1 -81 18 -155 38 -239 64 -370 80 -660 80 -313
1 -469 -19 -723 -91 -49 -14 -91 -22 -95 -19 -3 4 -164 295 -358 648 l-353
641 24 32 c49 64 69 124 69 210 0 93 -27 165 -89 234 -84 92 -246 135 -361 93z"/>
<path d="M9330 8789 c-94 -19 -172 -102 -191 -202 -6 -37 -9 -215 -7 -490 l3
-432 28 -57 c15 -31 43 -68 62 -82 75 -58 42 -56 984 -56 l866 0 50 24 c60 28
97 66 124 126 20 43 21 63 20 510 0 353 -3 474 -13 501 -20 56 -61 103 -118
135 l-53 29 -855 2 c-472 0 -875 -3 -900 -8z"/>
<path d="M484 8711 c-87 -15 -170 -89 -194 -172 -6 -20 -10 -224 -10 -494 l0
-460 24 -51 c27 -59 90 -116 145 -132 28 -9 276 -12 903 -12 769 0 870 2 904
16 60 25 98 60 130 116 l29 53 0 475 c0 524 2 507 -64 583 -18 19 -53 46 -79
59 l-47 23 -850 1 c-467 1 -868 -1 -891 -5z"/>
<path d="M2770 8111 c-74 -15 -136 -66 -164 -133 -14 -33 -16 -194 -16 -1440
0 -1341 1 -1405 19 -1444 24 -53 91 -109 146 -123 27 -7 164 -11 364 -11 l321
0 0 -38 c0 -152 119 -343 269 -432 128 -76 161 -80 682 -80 l458 0 3 -412 c3
-404 4 -414 26 -467 75 -176 215 -284 400 -311 35 -5 67 -11 70 -14 2 -3 9
-29 13 -58 19 -122 112 -243 224 -294 l55 -25 0 -173 0 -172 -87 -12 c-526
-72 -980 -449 -1147 -953 -51 -155 -66 -238 -73 -406 l-6 -153 426 0 426 0 3
-362 3 -363 28 -57 c32 -65 89 -121 156 -152 44 -20 60 -21 386 -21 326 0 342
1 386 21 67 31 124 87 156 152 l28 57 3 363 3 362 426 0 426 0 -6 153 c-7 168
-22 251 -73 406 -167 504 -621 881 -1146 953 l-88 12 0 172 0 173 55 25 c112
51 205 172 224 294 4 29 11 55 13 58 3 3 35 9 70 14 186 27 325 135 400 311
22 53 23 63 26 467 l3 412 458 0 c423 0 464 1 535 20 107 27 169 63 251 145
101 100 165 235 165 347 l0 38 321 0 c200 0 337 4 364 11 55 14 122 70 146
123 18 39 19 103 19 1444 0 1246 -2 1407 -16 1440 -19 47 -58 88 -109 115
l-40 22 -2975 1 c-1636 1 -2991 -1 -3010 -5z m3234 -5852 c448 -91 816 -440
935 -886 12 -45 24 -111 28 -147 l6 -66 -321 0 -321 0 -3 383 c-3 374 -3 383
-26 432 -29 63 -83 119 -147 153 l-50 27 -350 0 -350 0 -51 -27 c-60 -32 -118
-93 -148 -157 -20 -44 -21 -62 -24 -428 l-3 -383 -320 0 -319 0 0 38 c1 85 61
294 117 407 78 155 228 335 362 434 290 215 634 291 985 220z"/>
<path d="M9436 7341 c-3 -4 -4 -91 -3 -192 l2 -184 768 -3 767 -2 -2 192 -3
193 -762 2 c-419 2 -764 -1 -767 -6z"/>
<path d="M1343 7262 l-763 -2 0 -190 0 -190 765 2 766 3 0 189 c0 103 -1 189
-3 190 -2 0 -346 0 -765 -2z"/>
<path d="M9432 6673 l3 -188 768 -3 767 -2 0 190 0 190 -770 0 -770 0 2 -187z"/>
<path d="M580 6590 l0 -190 768 2 767 3 3 188 2 187 -770 0 -770 0 0 -190z"/>
<path d="M9438 6184 c-2 -102 -1 -188 1 -190 2 -2 348 -4 768 -4 l763 0 0 190
0 190 -765 0 -764 0 -3 -186z"/>
<path d="M580 6100 l0 -190 765 2 766 3 0 185 0 185 -766 3 -765 2 0 -190z"/>
<path d="M9303 5870 c-53 -12 -97 -44 -130 -93 -25 -38 -33 -61 -38 -123 -9
-90 0 -202 19 -247 17 -40 60 -84 108 -108 36 -18 73 -19 940 -19 858 0 905 1
943 19 22 10 52 31 67 47 48 51 58 91 58 232 0 117 -2 132 -25 179 -29 57 -82
100 -142 114 -46 10 -1755 10 -1800 -1z"/>
<path d="M442 5790 c-54 -13 -109 -58 -137 -113 -23 -47 -25 -62 -25 -181 0
-145 12 -187 66 -238 65 -61 19 -58 1005 -58 999 0 931 -5 1003 67 51 51 61
89 61 233 0 115 -2 130 -26 175 -28 56 -86 102 -145 115 -47 11 -1755 11
-1802 0z"/>
<path d="M9437 5153 c-4 -3 -7 -89 -7 -190 l0 -183 770 0 770 0 0 190 0 190
-763 0 c-420 0 -767 -3 -770 -7z"/>
<path d="M580 4890 l0 -190 770 0 770 0 -2 188 -3 187 -767 3 -768 2 0 -190z"/>
<path d="M9437 4673 c-4 -3 -7 -89 -7 -190 l0 -183 770 0 770 0 0 190 0 190
-763 0 c-420 0 -767 -3 -770 -7z"/>
<path d="M580 4410 l0 -190 770 0 770 0 -2 188 -3 187 -767 3 -768 2 0 -190z"/>
<path d="M9434 4177 c-2 -7 -3 -94 -2 -192 l3 -180 768 -3 767 -2 0 195 0 195
-765 0 c-614 0 -767 -3 -771 -13z"/>
<path d="M580 3915 l0 -195 768 2 767 3 0 190 0 190 -767 3 -768 2 0 -195z"/>
<path d="M9228 3133 c-168 -291 -311 -545 -318 -567 -17 -54 -9 -142 20 -200
83 -165 318 -197 441 -59 19 21 133 210 254 421 l220 382 360 -2 359 -3 178
-307 178 -308 -222 -382 c-121 -211 -227 -397 -234 -415 -22 -52 -18 -150 10
-208 26 -57 88 -117 143 -140 92 -39 225 -10 295 63 20 20 171 272 337 560
l301 522 -321 558 c-177 306 -331 569 -341 585 l-19 27 -669 0 -668 0 -304
-527z"/>
<path d="M656 3543 c-13 -21 -166 -284 -340 -585 l-316 -548 301 -522 c166
-288 316 -538 333 -556 51 -55 120 -85 196 -84 77 0 125 19 182 70 57 52 88
121 88 200 0 34 -6 77 -14 95 -7 18 -113 204 -234 415 l-222 382 178 308 178
307 359 3 360 2 220 -382 c121 -211 237 -402 258 -424 21 -23 61 -52 89 -64
99 -42 234 -15 305 62 60 66 89 185 63 264 -7 22 -150 276 -318 567 l-305 527
-668 0 -669 0 -24 -37z"/>
</g>
</svg>
