<?xml version="1.0" encoding="UTF-8" standalone="no"?>
<!-- Created with Inkscape (http://www.inkscape.org/) -->

<svg
   version="1.1"
   id="svg1791"
   width="905.33331"
   height="1086.6667"
   viewBox="0 0 905.33331 1086.6667"
   sodipodi:docname="d1.svg"
   inkscape:version="1.2.2 (732a01da63, 2022-12-09, custom)"
   xmlns:inkscape="http://www.inkscape.org/namespaces/inkscape"
   xmlns:sodipodi="http://sodipodi.sourceforge.net/DTD/sodipodi-0.dtd"
   xmlns="http://www.w3.org/2000/svg"
   xmlns:svg="http://www.w3.org/2000/svg">
  <defs
     id="defs1795" />
  <sodipodi:namedview
     id="namedview1793"
     pagecolor="#ffffff"
     bordercolor="#000000"
     borderopacity="0.25"
     inkscape:showpageshadow="2"
     inkscape:pageopacity="0.0"
     inkscape:pagecheckerboard="0"
     inkscape:deskcolor="#d1d1d1"
     showgrid="false"
     inkscape:zoom="0.76196313"
     inkscape:cx="435.71662"
     inkscape:cy="543.33337"
     inkscape:window-width="1920"
     inkscape:window-height="1031"
     inkscape:window-x="0"
     inkscape:window-y="25"
     inkscape:window-maximized="1"
     inkscape:current-layer="layer1" />
  <g
     inkscape:groupmode="layer"
     id="layer1"
     inkscape:label="Layer 1">
    <path
       style="fill:#000000;stroke-width:1.33333"
       d="m 403.33332,1079.6042 c -4.4,-2.3844 -11.61714,-6.803 -16.0381,-9.8189 -15.21528,-10.3799 -35.57262,-36.8752 -61.30211,-79.78527 -20.61892,-34.38697 -45.13529,-67.9812 -66.65316,-91.33334 -19.86241,-21.55554 -40.68281,-50.16492 -66.95278,-92 C 165.79256,764.31464 142.64368,721.63294 134.17376,699.33335 126.8701,680.10429 119.54723,670.39111 111.03361,668.6399 99.510965,666.26975 96.576191,664.79445 90.014556,658.07361 77.763595,645.52541 66.942713,620.51721 60.714929,590.35906 58.856913,581.36159 53.451921,543.63518 48.703836,506.5226 36.941538,414.58465 31.486307,390.35285 19.249321,375.68748 9.7384411,364.28918 4.7178256,327.78245 10.921401,315.13212 c 3.563364,-7.26642 8.047992,-9.14452 21.510565,-9.00838 15.079794,0.15251 25.671077,2.89383 41.079923,10.63262 6.472486,3.25068 13.160146,5.91032 14.861466,5.91032 10.848224,0 7.980447,-14.80968 -9.294822,-48 C 62.640033,243.08401 54.169787,219.8995 48.146345,190.00001 40.548196,152.28388 41.043946,112.63643 49.463224,84.682805 52.937127,73.14878 56.154688,66.647665 62.78511,57.7658 69.521908,48.741439 82.145051,42.167367 92.928375,42.067332 c 6.825597,-0.06332 7.564865,0.261504 12.409255,5.45242 5.25984,5.63609 6.78979,9.679778 14.55921,38.480251 4.71099,17.463207 12.59795,26.444447 23.22244,26.444447 7.75016,0 16.26434,-5.03078 24.3347,-14.378647 33.58593,-38.902445 118.74735,-69.519286 219.21268,-78.810329 25.99513,-2.404032 39.3382,-2.404032 65.33333,0 100.46533,9.291043 185.62674,39.907884 219.21267,78.810329 19.96482,23.125167 39.39355,18.195867 47.55715,-12.0658 7.76941,-28.800473 9.29936,-32.844161 14.5592,-38.480251 4.8444,-5.190916 5.58366,-5.51574 12.40926,-5.45242 10.78332,0.10004 23.40647,6.674107 30.14327,15.698468 6.63041,8.881865 9.84797,15.38298 13.32188,26.917005 8.41928,27.953625 8.91503,67.601075 1.31688,105.317205 -6.02344,29.89949 -14.49369,53.084 -30.93219,84.66667 -17.27526,33.19032 -20.14305,48 -9.29482,48 1.70132,0 8.38898,-2.65964 14.86146,-5.91032 15.40886,-7.73879 26.00014,-10.48011 41.07992,-10.63262 13.46259,-0.13614 17.94722,1.74196 21.51058,9.00838 6.20357,12.65033 1.18296,49.15706 -8.32792,60.55536 -12.23699,14.66537 -17.69222,38.89717 -29.45452,130.83512 -4.74808,37.11258 -10.15308,74.83899 -12.0111,83.83646 -6.22778,30.15815 -17.04866,55.16635 -29.29962,67.71455 -6.56164,6.72084 -9.49642,8.19614 -21.01906,10.56629 -8.51361,1.75121 -15.83649,11.46439 -23.14014,30.69345 -8.46992,22.29959 -31.6188,64.98129 -58.21341,107.33334 -26.26998,41.83508 -47.09038,70.44446 -66.95279,92 -21.51786,23.35214 -46.03424,56.94637 -66.65316,91.33334 -26.58082,44.32987 -46.14914,69.51907 -62.65219,80.64847 -22.28026,15.0255 -32.03452,16.8966 -46.68802,8.9557 z m 49.52273,-168.26415 c 9.4946,-2.47304 17.51126,-6.5848 33.98908,-17.43312 23.39378,-15.4015 36.30958,-20.60609 44.46063,-17.916 12.21631,4.03175 28.46335,-13.51586 47.69021,-51.50776 11.22873,-22.18775 16.20924,-34.85759 30.58963,-77.81648 19.25072,-57.50816 30.16688,-75.7709 37.0494,-61.9837 1.47176,2.94828 2.11453,10.135 2.47298,27.65037 0.2664,13.01666 0.87608,23.66034 1.35484,23.65262 0.91212,-0.0147 14.35187,-24.03409 21.43392,-38.30649 5.97534,-12.04204 16.45615,-37.9115 24.98898,-61.67947 8.95098,-24.93279 16.44422,-39.88344 22.77573,-45.44258 4.21534,-3.70113 5.3179,-4.04668 10.45429,-3.27642 7.94539,1.19148 13.03756,-1.69882 17.09305,-9.70195 6.73339,-13.28769 10.62927,-32.60768 12.76614,-63.30821 4.74957,-68.23786 9.79905,-88.8827 33.33028,-136.27085 18.19926,-36.65045 18.50404,-40 3.63961,-40 -7.29203,0 -9.19263,0.53916 -13.51071,3.83272 -7.98452,6.09008 -17.33084,19.93619 -28.01352,41.50062 -16.39289,33.09126 -26.44409,62.8618 -38.1425,112.97396 -10.23189,43.83004 -17.24505,65.63471 -25.81257,80.25408 -6.04442,10.314 -8.76776,8.29057 -10.16043,-7.54908 -0.58175,-6.61657 -1.68461,-11.29656 -2.96345,-12.57541 -2.8283,-2.82828 -9.68584,-2.54636 -22.88652,0.94089 -6.19964,1.63777 -12.21327,2.6166 -13.36362,2.17517 -2.80841,-1.07768 -2.6334,-4.74612 0.62023,-13.00064 15.27053,-38.74168 33.15739,-139.81031 33.26089,-187.93884 0.0427,-19.83884 -5.26217,-35.61163 -19.37488,-57.60695 -9.1899,-14.32289 -32.49836,-36.81244 -44.02873,-42.48183 l -9.20228,-4.52469 -22.68337,0.0681 c -25.43636,0.0764 -36.07743,1.78424 -59.27432,9.51295 -19.23124,6.40744 -35.58731,14.29264 -53.38493,25.73669 -15.10596,9.71334 -35.25277,20.01556 -39.14191,20.01556 -1.13198,0 -2.35857,0.48607 -2.72574,1.08016 -1.01032,1.63475 -12.47338,1.89779 -13.45546,0.30876 -0.4721,-0.7639 -1.78457,-1.38892 -2.91656,-1.38892 -3.88913,0 -24.03594,-10.30222 -39.1419,-20.0155 -17.79763,-11.44406 -34.1537,-19.32926 -53.38493,-25.7367 -23.1969,-7.72871 -33.83796,-9.43649 -59.27432,-9.51295 l -22.68338,-0.0681 -9.20228,4.52469 c -11.53037,5.66939 -34.83882,28.15894 -44.02873,42.48183 -14.1127,21.99532 -19.41754,37.76811 -19.37488,57.60695 0.10347,48.12854 17.99036,149.19717 33.26089,187.93885 3.25363,8.25452 3.42864,11.92296 0.62023,13.00064 -1.15035,0.44142 -7.16397,-0.5374 -13.36361,-2.17518 -13.20068,-3.48725 -20.05823,-3.76917 -22.88652,-0.94089 -1.27884,1.27885 -2.38171,5.95884 -2.96345,12.57541 -1.39267,15.83966 -4.11602,17.86308 -10.16043,7.54908 -8.56752,-14.61942 -15.58068,-36.42409 -25.81257,-80.25413 C 109.69014,446.19515 99.638945,416.42461 83.246049,383.33335 72.563366,361.76892 63.217045,347.92281 55.232533,341.83273 c -4.318076,-3.29356 -6.218678,-3.83272 -13.51071,-3.83272 -14.864424,0 -14.559646,3.34955 3.639622,40 23.531213,47.38815 28.580704,68.03299 33.330278,136.27085 2.136856,30.70053 6.032739,50.02052 12.766127,63.30821 4.05549,8.00313 9.14767,10.89343 17.09306,9.70195 5.13639,-0.77026 6.23894,-0.42471 10.45429,3.27642 6.3315,5.55914 13.82474,20.50979 22.77573,45.44258 8.53283,23.76797 19.01364,49.63743 24.98897,61.67947 7.08206,14.2724 20.5218,38.29179 21.43392,38.30649 0.47876,0.008 1.08844,-10.63596 1.35484,-23.65262 0.35846,-17.51537 1.00123,-24.70209 2.47299,-27.65037 6.88252,-13.7872 17.79868,4.47554 37.0494,61.9837 14.38038,42.95889 19.36089,55.62873 30.58962,77.81648 19.22687,37.9919 35.47391,55.53951 47.69022,51.50776 7.79214,-2.57164 22.12083,2.9478 41.30577,15.91106 23.7272,16.03245 36.76884,21.05345 51.16744,19.69932 6.07016,-0.57087 44.11576,0.70473 45.10084,1.51216 0.14756,0.12093 3.71205,-0.6771 7.92111,-1.77342 z m -50.23767,-31.28633 c -5.5398,-1.86287 -13.64522,-5.48703 -18.01204,-8.05369 -10.69899,-6.2885 -26.40399,-21.91802 -28.5254,-28.38832 -3.41458,-10.4144 0.57093,-11.24316 20.99365,-4.36548 16.29351,5.4871 31.88505,8.81809 41.83143,8.93689 9.64253,0.1152 25.93625,-3.29613 42.68603,-8.93689 20.42272,-6.87768 24.40823,-6.04892 20.99366,4.36548 -2.19115,6.68301 -17.99064,22.21428 -29.25239,28.75577 -10.77058,6.2562 -27.95802,11.82172 -35.19004,11.395 -2.9989,-0.17695 -9.98512,-1.84589 -15.5249,-3.70876 z m -1.95172,-59.44712 c -34.46731,-4.61511 -44.62606,-11.18491 -66.17871,-42.79871 -5.24635,-7.69541 -14.2355,-18.39751 -20.85446,-24.8284 -6.39843,-6.21661 -13.7335,-14.1472 -16.30016,-17.62351 -2.56667,-3.4763 -6.93887,-8.0044 -9.716,-10.06241 -3.1769,-2.35427 -4.48903,-4.08815 -3.53839,-4.67567 0.83101,-0.5136 10.90321,-1.21829 22.38267,-1.56598 18.31219,-0.55466 24.30538,-0.13743 48.87171,3.40228 58.5042,8.42972 69.3402,8.42909 128,-0.008 24.54865,-3.53063 30.57269,-3.94908 48.87172,-3.39483 11.47945,0.34769 21.55165,1.05239 22.38267,1.56599 0.95064,0.58752 -0.3615,2.3214 -3.53839,4.67566 -2.77713,2.05802 -7.14933,6.58611 -9.716,10.06242 -2.56667,3.4763 -9.90173,11.40689 -16.30016,17.6235 -6.61896,6.4309 -15.60812,17.13299 -20.85447,24.8284 -12.08224,17.72243 -19.16326,25.59398 -28.38585,31.55483 -9.21947,5.95883 -18.29247,8.58768 -38.86114,11.2598 -18.14832,2.35771 -18.53931,2.35754 -36.26504,-0.0159 z m 28.48333,-19.32923 c 12.37437,-1.55161 28.55134,-6.97508 37.56308,-12.59333 14.1053,-8.79378 30.62025,-26.30846 30.62025,-32.47384 0,-3.83819 -4.03079,-3.78899 -33.55601,0.40949 -36.48701,5.18845 -44.21633,6.08769 -47.77732,5.55844 -1.83333,-0.27248 -9.33333,-1.22109 -16.66667,-2.10803 -7.33333,-0.88693 -20.83333,-2.75918 -30,-4.16056 -9.16666,-1.40136 -19.21666,-2.55429 -22.33333,-2.56206 -4.92013,-0.012 -5.66667,0.36488 -5.66667,2.86272 0,6.16538 16.51495,23.68006 30.62026,32.47384 8.72846,5.44165 25.72278,11.26521 36.56664,12.53053 5.21388,0.60839 9.49552,1.184 9.51474,1.27913 0.0192,0.0952 5.021,-0.45221 11.11503,-1.21633 z m -22.48333,-83.27255 c -16.36971,-5.16293 -45.37007,-29.33759 -67.49988,-56.26779 -4.6832,-5.69906 -9.83346,-14.81788 -9.83346,-17.41065 0,-0.94221 -2.30693,-6.65111 -5.1265,-12.68641 -2.81959,-6.03531 -6.19641,-14.28379 -7.50408,-18.32995 l -2.37757,-7.35668 5.35596,-10.64332 c 5.72686,-11.38042 9.74149,-16.0727 12.76033,-14.91424 1.03077,0.39553 3.20602,5.7183 4.83388,11.82837 7.95341,29.85254 38.05124,72.09976 63.99344,89.82528 8.88946,6.07391 9.94434,6.45059 18.06454,6.45059 8.1202,0 9.17508,-0.37668 18.06455,-6.45059 25.9422,-17.72552 56.04002,-59.97274 63.99344,-89.82528 1.62785,-6.11007 3.8031,-11.43284 4.83388,-11.82837 3.01884,-1.15846 7.03346,3.53382 12.76033,14.91424 l 5.35596,10.64332 -2.37757,7.35668 c -1.30767,4.04616 -4.6845,12.29464 -7.50408,18.32995 -2.81958,6.0353 -5.12651,11.7442 -5.12651,12.68641 0,2.53361 -5.07816,11.60256 -9.83345,17.56129 -6.96807,8.7315 -35.23006,36.3475 -43.9574,42.95264 -17.30561,13.0975 -34.44843,17.71483 -48.87581,13.16451 z M 243.94975,697.88891 c -0.0276,-2.87222 -0.60566,-18.42222 -1.28454,-34.55556 -1.76251,-41.88576 -5.52334,-63.22402 -17.99812,-102.11803 -12.95616,-40.39482 -12.38439,-46.0406 3.06008,-30.2153 19.11936,19.59082 30.27361,40.04676 35.6726,65.4205 2.56198,12.04058 2.47586,37.06646 -0.17166,49.88393 -1.72578,8.35505 -17.03536,54.30757 -18.74066,56.25113 -0.2681,0.30555 -0.51006,-1.79445 -0.5377,-4.66667 z M 585.5787,678.9423 c -10.31695,-29.29488 -12.19298,-38.17525 -12.22223,-57.85511 -0.0523,-35.19763 11.84413,-63.7136 37.58301,-90.08717 15.44446,-15.8253 16.01624,-10.17952 3.06008,30.2153 -12.90786,40.24422 -16.24442,59.89063 -18.13039,106.75587 -0.75189,18.68415 -1.50408,34.10816 -1.67152,34.27562 -0.16745,0.16744 -4.04597,-10.31959 -8.61895,-23.30451 z M 371.34931,531.1206 c -1.14079,-11.70689 -2.87433,-17.37654 -7.00212,-22.90077 -5.27819,-7.06381 -15.01044,-11.9036 -12.90532,-6.41772 0.75524,1.96812 -6.89277,4.04139 -25.15832,6.82003 -22.11333,3.364 -40.92816,-1.98488 -56.95022,-16.1904 -1.83334,-1.62548 -6.14802,-4.20005 -9.58818,-5.72125 -7.16325,-3.1675 -9.75208,-6.11796 -17.5872,-20.04381 -3.09446,-5.5 -8.48032,-14.86981 -11.96856,-20.82183 -3.48824,-5.952 -7.77682,-14.35149 -9.53018,-18.66554 l -3.18792,-7.84372 2.93101,-1.50478 c 1.61207,-0.82761 7.93067,-2.50644 14.04133,-3.73072 11.17299,-2.2385 22.54426,-6.10077 27.62874,-9.38414 1.98641,-1.28275 4.551,-1.4702 9.33333,-0.6822 3.62687,0.59761 11.69429,1.77732 17.92763,2.62157 23.82381,3.22673 28.94398,4.01635 37.99999,5.86028 5.13334,1.04521 13.59456,3.44667 18.80274,5.33656 5.20816,1.88988 13.39698,3.99237 18.19738,4.6722 9.96842,1.41169 14.77292,4.03981 16.83206,9.20732 1.77374,4.45127 6.83817,50.34681 6.82442,61.84515 -0.0216,18.04735 -5.52492,37.05665 -12.67204,43.77103 l -3.07981,2.89333 z m -80.94244,-58.23963 c 1.97622,-2.08213 5.21332,-4.63213 7.19358,-5.66666 4.65632,-2.43258 21.15053,-2.45484 26.7757,-0.0361 5.05576,2.17386 13.61793,10.88144 14.90211,15.15518 1.10505,3.67766 2.09365,3.73557 6.36846,0.373 3.29742,-2.59375 5.07055,-9.45467 5.3875,-20.84612 0.13904,-4.99768 -9.56062,-18.48262 -15.7009,-21.82815 -7.68288,-4.18603 -33.45827,-10.69971 -42.24933,-10.6768 -8.70773,0.0227 -17.61472,3.60256 -19.85006,7.97807 -6.92658,13.55826 -7.7174,16.93752 -5.3679,22.93726 0.65967,1.68451 1.88378,5.61282 2.72024,8.72958 0.90348,3.36641 3.70983,7.96713 6.91311,11.33333 l 5.39223,5.66649 1.96108,-4.66666 c 1.07858,-2.56667 3.57797,-6.37023 5.55418,-8.45238 z m 172.67016,64.23625 c -7.25907,-7.76098 -12.37901,-25.73831 -12.40031,-43.54039 -0.0137,-11.49834 5.05068,-57.39388 6.82443,-61.84515 2.05913,-5.16751 6.86364,-7.79563 16.83205,-9.20732 4.8004,-0.67983 12.98923,-2.78232 18.19739,-4.6722 5.20817,-1.88989 13.6694,-4.29135 18.80273,-5.33656 9.05601,-1.84393 14.17619,-2.63355 38,-5.86028 6.23333,-0.84425 14.30076,-2.02396 17.92763,-2.62157 4.78233,-0.788 7.34692,-0.60055 9.33333,0.6822 5.08448,3.28337 16.45574,7.14564 27.62873,9.38414 6.11067,1.22428 12.42927,2.90311 14.04133,3.73072 l 2.93102,1.50478 -3.18792,7.84372 c -1.75336,4.31405 -6.04195,12.71354 -9.53019,18.66554 -3.48824,5.95202 -8.87409,15.32183 -11.96856,20.82183 -7.83512,13.92585 -10.42395,16.87631 -17.5872,20.04381 -3.44016,1.5212 -7.75484,4.09577 -9.58817,5.72125 -16.02207,14.20552 -34.83689,19.5544 -56.95023,16.1904 -18.26554,-2.77864 -25.91356,-4.85191 -25.15832,-6.82003 2.09904,-5.47004 -7.55977,-0.68116 -12.99277,6.44187 -3.5814,4.69545 -5.53871,11.25818 -7.22069,24.2105 l -1.01132,7.7878 z m 36.31136,-54.78387 c 1.28417,-4.27374 9.84634,-12.98132 14.9021,-15.15518 5.62518,-2.4187 22.11939,-2.39644 26.77571,0.0361 5.03311,2.62942 10.43257,8.6097 12.74776,14.11904 l 1.96108,4.66666 5.39223,-5.66649 c 3.20328,-3.3662 6.00962,-7.96692 6.9131,-11.33333 0.83647,-3.11676 2.06058,-7.04507 2.72024,-8.72958 2.34951,-5.99974 1.55868,-9.379 -5.36789,-22.93726 -2.23535,-4.37551 -11.14233,-7.95538 -19.85007,-7.97807 -8.79105,-0.0229 -34.56645,6.49077 -42.24933,10.6768 -6.14028,3.34553 -15.83993,16.83047 -15.70089,21.82815 0.31694,11.39145 2.09008,18.25237 5.38749,20.84612 4.27481,3.36257 5.26341,3.30466 6.36847,-0.373 z M 372.22276,395.86483 c -27.43322,-5.75946 -49.95055,-14.61659 -76.66965,-30.15785 -19.755,-11.49056 -30.20741,-16.37364 -35.04836,-16.37364 -1.88056,0 -9.51345,-1.20956 -16.96198,-2.68792 -21.4972,-4.26668 -23.86084,-6.09213 -13.20944,-10.2018 4.89594,-1.88902 9.81332,-2.42121 21.66666,-2.34489 20.23286,0.13027 32.25728,3.17864 63.01711,15.9758 28.50112,11.85745 45.53006,17.93979 65.40458,23.36096 15.96586,4.35501 23.7369,7.79895 29.24498,12.96067 11.72444,10.98717 -7.29824,15.79756 -37.4439,9.46867 z m 56.07391,0.72625 c -9.05756,-6.34416 3.27577,-15.88012 29.94829,-23.15559 19.87452,-5.42117 36.90347,-11.50351 65.40459,-23.36096 30.75982,-12.79716 42.78425,-15.84553 63.0171,-15.9758 11.85335,-0.0763 16.77072,0.45587 21.66667,2.34489 10.6514,4.10967 8.28776,5.93512 -13.20944,10.2018 -7.44854,1.47836 -15.08143,2.68792 -16.96199,2.68792 -4.84094,0 -15.29336,4.88308 -35.04836,16.37364 -19.64212,11.42491 -33.17898,17.60015 -51.32077,23.41149 -27.44132,8.79024 -56.69902,12.23346 -63.49609,7.47261 z m -52.96335,-52.58519 c -5.86666,-1.33979 -19.66666,-5.26247 -30.66666,-8.71707 -34.65048,-10.88216 -55.34149,-15.60018 -78.66667,-17.9378 -18.11292,-1.81526 -24.11361,-3.34073 -29.66666,-7.54177 -7.6471,-5.78524 -5.4794,-10.06709 6.3846,-12.61147 18.36308,-3.93817 94.8801,8.78448 129.41606,21.51831 20.53799,7.57259 30.53267,14.27593 30.53267,20.47799 0,7.5391 -8.69128,9.06914 -27.33334,4.81181 z m 63.63002,0.58519 c -6.53446,-4.57692 -2.14451,-12.22764 10.78357,-18.7934 30.90329,-15.6948 122.67102,-33.64634 146.20181,-28.5999 11.864,2.54438 14.03169,6.82623 6.3846,12.61147 -5.55306,4.20104 -11.55375,5.72651 -29.66667,7.54177 -23.30833,2.33592 -43.97545,7.04702 -78.66666,17.93212 -34.44832,10.80891 -49.30619,13.32171 -55.03665,9.30794 z m -298.29668,-65.7509 c 14.46896,-6.91686 37.7674,-29.70092 45.83234,-44.82043 1.55888,-2.92248 2.83433,-6.10226 2.83433,-7.06621 0,-6.29288 -12.5764,-22.01537 -41.31893,-51.6552 -34.6585,-35.74051 -47.95253,-56.78388 -56.834858,-89.965004 -2.650152,-9.9 -5.046586,-18.246883 -5.325407,-18.548627 -1.096279,-1.186412 -16.713546,33.832761 -18.846642,42.260521 -3.565137,14.08568 -3.165708,51.05727 0.764179,70.73316 10.596422,53.05351 39.893138,102.52443 60.894988,102.82831 2.2,0.0319 7.6,-1.6631 12,-3.76652 z m 577.75259,1.28604 c 19.89452,-10.14943 43.46148,-55.21585 52.47573,-100.34783 3.92988,-19.67589 4.32931,-56.64748 0.76417,-70.73316 -2.13309,-8.42776 -17.75036,-43.446933 -18.84664,-42.260521 -0.27882,0.301744 -2.67525,8.648627 -5.32541,18.548627 -8.88232,33.181124 -22.17636,54.224494 -56.83485,89.965004 -28.74253,29.63983 -41.31893,45.36232 -41.31893,51.6552 0,2.97089 5.34796,11.97573 12.35754,20.80748 13.8634,17.46725 37.85332,34.90172 48.02891,34.9046 2.04588,5.8e-4 5.96065,-1.14214 8.69948,-2.5394 z"
       id="path1909" />
  </g>
</svg>
